<svg width="40" height="40" viewBox="0 0 40 40" fill="none" xmlns="http://www.w3.org/2000/svg">
<path d="M25.6436 0.276721C23.0958 1.05522 20.2043 3.73005 18.1216 7.26323C16.7871 9.51887 16.0996 11.3952 16.0794 12.8724C16.0592 14.4693 16.5242 15.2877 17.8588 15.9465C18.8293 16.4255 19.0922 16.4455 23.6215 16.5653C29.5259 16.725 30.4762 16.9645 32.3567 18.7211C32.7814 19.1004 33.1453 19.3798 33.1858 19.3199C33.9339 18.3219 36.1581 15.8067 36.9467 15.0881C37.9375 14.1699 38.0184 14.13 38.443 14.4094C39.2721 14.9484 39.1305 15.5073 37.8162 16.8248C37.1692 17.4835 36.0166 18.781 35.2684 19.6992C34.1159 21.1364 33.9541 21.4159 34.0754 21.895C34.3788 22.933 34.217 25.5878 33.7519 27.2247C32.3567 32.1951 29.3843 35.6284 27.1601 34.7901C26.695 34.6104 26.2502 33.6523 26.2502 32.8139C26.2502 30.9175 28.5553 26.0469 31.5884 21.4957C31.9321 20.9767 31.9321 20.9568 31.3255 20.2781C30.0314 18.8209 27.8678 18.3618 22.4286 18.3418C18.4856 18.3418 17.2117 18.0624 15.9176 16.9845C14.7853 16.0263 14.3202 14.9683 14.3202 13.3515C14.3202 9.77837 16.4029 5.52658 19.8404 2.11317L21.4175 0.516258L18.9304 0.636027C15.5739 0.795718 13.1879 1.45445 10.2964 2.99148C8.80006 3.78994 7.40486 4.74808 8.11257 4.50855C9.50777 4.00951 13.3496 2.93159 15.0077 2.59225C16.4636 2.27287 17.0702 2.21298 17.3533 2.37267C17.7981 2.61221 17.8992 3.41067 17.515 3.71009C17.3735 3.82986 15.8974 4.24905 14.2191 4.66824C11.1456 5.42677 8.21367 6.38492 5.38283 7.56265C4.08873 8.08165 3.80564 8.28126 3.80564 8.62061C3.86631 12.1338 4.63468 22.0347 4.91776 22.8731C4.97842 23.0328 5.78724 22.7533 7.30376 22.0347C9.62909 20.9368 12.561 19.8988 13.9562 19.6593C14.664 19.5395 15.3312 19.8589 15.3312 20.338C15.3312 20.6973 14.6842 21.1364 13.8551 21.336C11.4085 21.9349 5.22107 24.5498 5.22107 24.969C5.22107 25.488 6.73759 31.9755 7.16222 33.3528C7.46552 34.2711 7.91037 35.1893 8.27433 35.5885C8.59786 35.9678 8.86072 36.4469 8.86072 36.6664C8.86072 37.2054 8.35521 37.5647 7.74861 37.4649C7.3442 37.3851 7.28354 37.425 7.4453 37.7044C7.89015 38.5029 8.69896 38.7824 9.28535 38.3232C9.62909 38.0438 9.68975 37.9041 9.50777 37.5847C9.34601 37.2852 9.7302 37.405 11.2063 38.1236C14.1989 39.5808 16.1805 40 20.083 40C22.7925 39.98 23.6013 39.9002 25.037 39.5209C29.3439 38.3831 33.4284 35.6883 35.9155 32.3548C38.7261 28.622 40 24.8293 40 20.318C40 15.168 38.1397 10.5569 34.5203 6.66438C34.0912 6.22058 34 5.85366 33.4891 5.36585L33.2666 5.06747C33.3273 5.7262 33.4486 6.345 33.5497 6.44481C33.8126 6.72427 33.7721 7.44288 33.4891 7.72234C33.0847 8.12157 32.3567 8.0018 31.9928 7.46284C31.8108 7.18338 31.5884 6.32504 31.5075 5.52658C31.3659 4.36882 31.2446 4.00951 30.8604 3.71009C30.274 3.23101 28.0094 2.11317 26.9983 1.79379C25.9873 1.45445 26.23 1.17499 27.5645 1.17499C28.8182 1.17499 29.5865 1.41452 30.274 2.03333C30.7189 2.43256 30.7391 2.43256 30.5369 2.07325C30.1729 1.3746 28.9799 0.376528 28.252 0.176913C27.3623 -0.0825855 26.7557 -0.062624 25.6436 0.276721Z" fill="#2F929F"/>
<path d="M3.60344 4.70816C3.60344 5.74616 3.7652 6.16535 4.08873 6.04558C4.39203 5.92581 4.18983 4.46863 3.82587 4.10932C3.6641 3.94963 3.60344 4.10932 3.60344 4.70816Z" fill="#2F929F"/>
<path d="M1.58141 8.93999C1.58141 9.27933 1.82405 9.75841 2.00604 9.75841C2.10714 9.75841 2.18802 9.53883 2.18802 9.25937C2.18802 8.93999 2.0667 8.76034 1.88472 8.76034C1.72295 8.76034 1.58141 8.84018 1.58141 8.93999Z" fill="#7ACAD4"/>
<path d="M1.80383 11.8544C0.631056 14.4094 0.165989 16.4056 0.0244464 19.4397C-0.137316 23.5518 0.489514 26.4063 2.32956 29.7199C3.01705 30.9774 5.20085 34.0116 5.32217 33.8718C5.34239 33.8319 5.16041 32.9536 4.89754 31.9156C4.63468 30.8776 4.21005 29.0611 3.96741 27.8634C3.60344 26.0869 3.4619 25.7475 3.19903 25.8473C3.03727 25.9272 2.57221 26.007 2.18802 26.007C1.56119 26.027 1.48031 25.9671 1.48031 25.528C1.48031 25.1287 1.66229 24.9491 2.37 24.6297L3.23948 24.2504L3.13837 23.2324C2.67331 19.0804 2.34978 15.687 2.22846 13.6509C2.08692 11.4352 2.0667 11.3154 1.80383 11.8544Z" fill="#2F929F"/>
<path d="M30.9009 26.047C30.1729 27.2446 29.3035 28.9414 28.9597 29.8197C28.2924 31.4964 27.9689 32.9137 28.2722 32.9137C28.6766 32.9137 30.1931 30.8976 30.9413 29.3605C31.7501 27.6838 32.3972 25.2884 32.2758 24.3702C32.2354 23.971 31.9725 24.2903 30.9009 26.047Z" fill="#2F929F"/>
</svg>
